<?xml version="1.0" standalone="no"?>
<!DOCTYPE svg PUBLIC "-//W3C//DTD SVG 20010904//EN"
 "http://www.w3.org/TR/2001/REC-SVG-20010904/DTD/svg10.dtd">
<svg version="1.0" xmlns="http://www.w3.org/2000/svg"
 width="1024.000000pt" height="1024.000000pt" viewBox="0 0 1024.000000 1024.000000"
 preserveAspectRatio="xMidYMid meet">

<g transform="translate(0.000000,1024.000000) scale(0.100000,-0.100000)"
fill="#000000" stroke="none">
<path d="M5645 8301 c-57 -15 -112 -50 -157 -100 -113 -125 -138 -297 -66
-434 44 -81 90 -125 182 -170 64 -31 77 -41 84 -69 12 -44 -4 -61 -60 -60
-148 4 -305 104 -358 228 -11 24 -23 44 -27 44 -48 -2 -630 -530 -674 -612 -9
-17 -7 -18 18 -12 15 4 78 33 138 66 264 142 396 202 444 202 45 1 46 1 49
-34 4 -55 -51 -114 -198 -211 -120 -80 -159 -103 -355 -212 -149 -82 -392
-193 -550 -252 -121 -44 -133 -48 -340 -97 l-180 -43 -225 1 c-251 0 -294 7
-454 71 -137 54 -268 145 -372 258 -47 52 -96 97 -107 101 -16 5 -28 -2 -49
-25 -26 -30 -28 -36 -28 -126 0 -128 13 -183 71 -300 97 -197 244 -372 453
-539 139 -110 212 -154 356 -210 175 -68 279 -87 516 -93 231 -6 333 3 510 46
321 79 591 201 1124 506 165 95 290 158 490 248 193 87 306 126 485 166 250
57 342 65 770 66 336 1 398 4 449 19 88 25 147 61 226 137 62 60 80 87 143
212 90 176 109 231 97 283 -13 58 -55 89 -142 108 -40 8 -140 29 -222 47 -169
35 -311 74 -341 93 -11 7 -28 37 -39 65 -70 196 -311 341 -660 396 -89 14
-103 19 -139 51 l-40 36 -93 -4 c-85 -4 -98 -7 -138 -35 -25 -18 -64 -34 -89
-38 l-45 -7 -33 62 c-61 115 -158 171 -304 176 -49 2 -103 0 -120 -5z m257
-303 c29 -20 44 -57 35 -82 -3 -8 -22 -18 -41 -21 -53 -10 -71 -37 -71 -104 0
-31 4 -66 8 -78 8 -21 5 -23 -22 -23 -66 0 -141 100 -141 189 0 42 5 56 30 84
60 68 137 82 202 35z m1105 -345 c40 -19 73 -66 73 -104 0 -15 -13 -38 -31
-57 -26 -27 -39 -32 -77 -32 -53 0 -106 29 -127 70 -20 39 -19 62 6 94 38 48
95 58 156 29z"/>
<path d="M2923 7129 c-22 -6 -35 -17 -39 -33 -9 -39 -1 -59 36 -84 44 -30 86
-26 113 10 18 24 19 30 7 59 -9 20 -26 37 -46 45 -19 8 -35 14 -36 13 -2 0
-18 -5 -35 -10z"/>
<path d="M3204 7000 c-26 -10 -52 -64 -46 -95 7 -37 65 -82 130 -102 70 -21
248 -23 307 -4 79 26 120 91 95 151 -21 52 -55 59 -270 59 -107 0 -204 -4
-216 -9z"/>
<path d="M6295 6390 c-152 -33 -229 -59 -388 -129 -117 -52 -383 -192 -532
-281 -220 -130 -567 -305 -765 -385 -58 -23 -175 -63 -260 -88 -415 -124 -651
-146 -1077 -102 -227 24 -300 47 -396 124 -72 56 -117 81 -148 81 -22 0 -22
-2 -16 -98 10 -144 27 -190 95 -259 31 -32 104 -97 162 -145 58 -47 141 -118
185 -157 76 -68 261 -198 333 -235 50 -26 208 -86 282 -108 137 -40 306 -60
495 -61 242 -1 385 23 632 104 217 70 406 164 843 419 371 217 625 349 865
450 278 117 457 154 649 132 55 -6 139 -14 185 -18 46 -3 78 -10 71 -14 -9 -5
-9 -9 -1 -14 15 -10 14 -66 -1 -99 -12 -24 -18 -27 -65 -27 -106 0 -381 -30
-456 -50 -177 -47 -563 -222 -827 -377 -74 -44 -198 -114 -275 -156 -77 -43
-187 -104 -245 -137 -166 -95 -242 -132 -471 -230 -273 -118 -337 -140 -544
-190 -265 -64 -579 -104 -910 -115 -177 -6 -238 0 -485 44 -128 23 -187 26
-241 11 -32 -9 -38 -16 -49 -54 -23 -84 -3 -129 126 -274 121 -136 162 -171
331 -289 152 -105 184 -122 341 -189 503 -216 1169 -166 1854 137 259 115 322
147 748 383 307 169 702 361 845 411 77 26 177 63 223 82 54 22 99 33 131 33
75 0 73 -19 -9 -96 -90 -85 -131 -114 -232 -165 -46 -23 -108 -59 -138 -79
-30 -21 -120 -70 -200 -110 -80 -40 -179 -91 -220 -115 -41 -23 -109 -60 -150
-82 -41 -22 -151 -83 -245 -135 -382 -214 -755 -390 -1020 -481 -363 -125
-575 -163 -975 -177 -146 -5 -289 -14 -318 -20 -97 -22 -106 -85 -23 -173 180
-193 665 -376 1111 -418 282 -26 653 22 935 121 278 99 577 274 819 478 108
92 275 262 346 352 27 36 60 76 73 90 12 14 35 46 49 71 15 25 34 52 43 59 9
8 28 34 41 59 14 25 45 80 69 121 129 218 231 527 286 865 22 139 3 494 -36
662 -16 70 -100 294 -140 374 -116 231 -337 453 -579 580 -117 62 -187 86
-301 104 -140 23 -278 18 -430 -15z"/>
<path d="M2530 4602 c-37 -38 -38 -66 -2 -123 80 -125 240 -192 308 -128 28
26 33 83 9 128 -19 37 -189 141 -244 148 -35 5 -44 2 -71 -25z"/>
<path d="M3704 1795 c-3 -8 -4 -20 -2 -27 3 -7 7 -1 10 15 6 29 1 36 -8 12z"/>
</g>
</svg>
